<?xml version="1.0" encoding="UTF-8"?>
<svg xmlns="http://www.w3.org/2000/svg" xmlns:xlink="http://www.w3.org/1999/xlink" width="512" height="512" viewBox="0 0 58 59" version="1.1"><!-- Generator: Sketch 51.3 (57544) - http://www.bohemiancoding.com/sketch --><title>039 - Money Cover</title><desc>Created with Sketch.</desc><defs/><g id="Page-1" stroke="none" stroke-width="1" fill="none" fill-rule="evenodd"><g id="039---Money-Cover" fill-rule="nonzero"><path d="M47,18 C47,18.33 46.99,18.67 46.97,19 C46.8382597,21.4776037 46.1875432,23.8999045 45.06,26.11 C44.7657467,26.7116006 44.431671,27.2928923 44.06,27.85 C42.7075147,29.9324909 40.9324909,31.7075147 38.85,33.06 C38.2928923,33.431671 37.7116006,33.7657467 37.11,34.06 C34.8999045,35.1875432 32.4776037,35.8382597 30,35.97 C29.67,35.99 29.33,36 29,36 C28.67,36 28.33,35.99 28,35.97 C25.5223963,35.8382597 23.1000955,35.1875432 20.89,34.06 C20.2883994,33.7657467 19.7071077,33.431671 19.15,33.06 C17.0675091,31.7075147 15.2924853,29.9324909 13.94,27.85 C13.568329,27.2928923 13.2342533,26.7116006 12.94,26.11 C11.8124568,23.8999045 11.1617403,21.4776037 11.03,19 C11.01,18.67 11,18.33 11,18 C11,17.67 11.01,17.33 11.03,17 C11.1617403,14.5223963 11.8124568,12.1000955 12.94,9.89 C13.2342533,9.28839938 13.568329,8.70710768 13.94,8.15 C15.2924853,6.06750907 17.0675091,4.29248528 19.15,2.94 C19.7071077,2.56832899 20.2883994,2.2342533 20.89,1.94 C23.1000955,0.812456844 25.5223963,0.161740312 28,0.03 C28.33,0.01 28.67,3.55271368e-15 29,3.55271368e-15 C29.33,3.55271368e-15 29.67,0.01 30,0.03 C32.4776037,0.161740312 34.8999045,0.812456844 37.11,1.94 C37.7116006,2.2342533 38.2928923,2.56832899 38.85,2.94 C40.9324909,4.29248528 42.7075147,6.06750907 44.06,8.15 C44.431671,8.70710768 44.7657467,9.28839938 45.06,9.89 C46.1875432,12.1000955 46.8382597,14.5223963 46.97,17 C46.99,17.33 47,17.67 47,18 Z" id="Shape" fill="#F0C419"/><circle id="Oval" fill="#F3D55B" cx="29" cy="18" r="14"/><path d="M13.316,41.738 L8.748,37.169 C7.7681854,36.1891673 6.98418578,35.0314951 6.438,33.758 L4.2,28.539 C3.85513073,27.7350887 3.06476152,27.213681 2.19,27.213 C1.44646337,27.2140738 0.754308811,27.5925026 0.352092311,28.2178583 C-0.0501241893,28.843214 -0.107402032,29.6299831 0.2,30.307 L4.119,38.929 C4.59961649,39.9858913 5.26620497,40.9478381 6.087,41.769 L13.316,49 L23,49 L23,46.139 C23.0326513,43.9976631 22.3373789,41.908673 21.028,40.214 C20.2961932,39.248342 19.2994007,38.5162954 18.159,38.107 C15.9390106,37.1700159 13.8927151,35.8657688 12.106,34.249 C10.6792055,33.057914 8.57863147,33.1551709 7.268,34.473" id="Shape" fill="#FDD7AD"/><path d="M44.682,41.738 L49.251,37.169 C50.2308146,36.1891673 51.0148142,35.0314951 51.561,33.758 L53.8,28.539 C54.1451559,27.7344212 54.9365118,27.2128815 55.812,27.213 C56.5551814,27.2147517 57.2467117,27.5934549 57.6484508,28.2186967 C58.0501899,28.8439386 58.107257,29.6303059 57.8,30.307 L53.881,38.929 C53.4003835,39.9858913 52.733795,40.9478381 51.913,41.769 L44.682,49 L35,49 L35,46.139 C34.9676344,43.997544 35.6632634,41.9085416 36.973,40.214 C37.7048068,39.248342 38.7015993,38.5162954 39.842,38.107 C42.0616805,37.1700017 44.1076446,35.8657503 45.894,34.249 C47.3212824,33.0582638 49.4218253,33.1554991 50.733,34.473" id="Shape" fill="#FDD7AD"/><rect id="Rectangle-path" fill="#41767F" transform="translate(39.500000, 54.000000) rotate(-180.000000) translate(-39.500000, -54.000000) " x="33" y="49" width="13" height="10" rx="1"/><path d="M38,55 L37,55 C36.4477153,55 36,54.5522847 36,54 C36,53.4477153 36.4477153,53 37,53 L38,53 C38.5522847,53 39,53.4477153 39,54 C39,54.5522847 38.5522847,55 38,55 Z" id="Shape" fill="#2C3E50"/><rect id="Rectangle-path" fill="#41767F" x="11.999" y="49" width="13" height="10" rx="1"/><path d="M21,55 L20,55 C19.4477153,55 19,54.5522847 19,54 C19,53.4477153 19.4477153,53 20,53 L21,53 C21.5522847,53 22,53.4477153 22,54 C22,54.5522847 21.5522847,55 21,55 Z" id="Shape" fill="#2C3E50"/><path d="M43.96,17 C43.8371618,15.0490001 43.3272573,13.1419573 42.46,11.39 C42.1679501,10.7872316 41.8337892,10.2057917 41.46,9.65 C39.9960888,7.45940707 37.9774954,5.69615708 35.61,4.54 C33.8580427,3.6727427 31.9509999,3.16283821 30,3.04 C29.67,3.01 29.34,3 29,3 C28.66,3 28.33,3.01 28,3.04 C26.0490001,3.16283821 24.1419573,3.6727427 22.39,4.54 C20.0225046,5.69615708 18.0039112,7.45940707 16.54,9.65 C16.1662108,10.2057917 15.8320499,10.7872316 15.54,11.39 C14.6727427,13.1419573 14.1628382,15.0490001 14.04,17 C14.01,17.33 14,17.66 14,18 C14,18.34 14.01,18.67 14.04,19 C14.1628382,20.9509999 14.6727427,22.8580427 15.54,24.61 C15.8320499,25.2127684 16.1662108,25.7942083 16.54,26.35 C18.0039112,28.5405929 20.0225046,30.3038429 22.39,31.46 C24.1419573,32.3272573 26.0490001,32.8371618 28,32.96 C28.33,32.99 28.66,33 29,33 C29.34,33 29.67,32.99 30,32.96 C31.9509999,32.8371618 33.8580427,32.3272573 35.61,31.46 C37.9774954,30.3038429 39.9960888,28.5405929 41.46,26.35 C41.8337892,25.7942083 42.1679501,25.2127684 42.46,24.61 C43.3272573,22.8580427 43.8371618,20.9509999 43.96,19 C43.99,18.67 44,18.34 44,18 C44,17.66 43.99,17.33 43.96,17 Z M40.25,24.5 C39.108846,26.4711291 37.4711291,28.108846 35.5,29.25 C33.7846968,30.2482799 31.8606264,30.8337177 29.88,30.96 C29.82,30.96 29.75,30.97 29.69,30.97 L29.67,30.97 C29.6104086,30.9785981 29.5501771,30.9819443 29.49,30.98 L29.48,30.98 C29.4103264,30.9883174 29.3401487,30.9916592 29.27,30.99 C29.1802542,30.9983237 29.0901157,31.0016621 29,31 L28.94,31 C28.7991993,30.9927326 28.6590657,30.9868248 28.5189787,30.980154 L28.5089787,30.980154 C28.4488053,30.9818104 28.3885983,30.9784656 28.3289787,30.970154 L28.3089787,30.970154 C26.2616642,30.8754043 24.2679333,30.2851776 22.4989787,29.250154 C20.5278496,28.109 18.8901327,26.4712831 17.7489787,24.500154 C15.4155561,20.4809473 15.4155561,15.5193607 17.7489787,11.500154 C18.8903937,9.52883902 20.5284767,7.89105509 22.5,6.75 C24.2703004,5.71808808 26.2632505,5.12809251 28.31,5.03 L28.33,5.03 C28.3895914,5.02140193 28.4498229,5.01805573 28.51,5.02 L28.52,5.02 C28.5896736,5.01168263 28.6598513,5.00834083 28.73,5.01 C28.8197458,5.00167634 28.9098843,4.99833787 29,5 L29.06,5 C29.1301487,4.99834083 29.2003264,5.00168263 29.27,5.01 C29.3401487,5.00834083 29.4103264,5.01168263 29.48,5.02 L29.49,5.02 C29.5501734,5.01834354 29.6103804,5.02168837 29.67,5.03 L29.69,5.03 C29.75,5.03 29.82,5.04 29.88,5.04 C31.8612283,5.16295734 33.7860488,5.74862335 35.5,6.75 C37.4711291,7.89115398 39.108846,9.5288709 40.25,11.5 C42.5834227,15.5192067 42.5834227,20.4807933 40.25,24.5 Z M35.29,6.58 C35.2356793,6.53662134 35.1913403,6.48205027 35.16,6.42 C35.15,6.41 35.14,6.39 35.13,6.38 C35.0075291,6.1610413 34.9718355,5.90404695 35.03,5.66 C35.0318587,5.62913019 35.0386094,5.59875161 35.05,5.57 C35.0525041,5.55496257 35.0594725,5.54102572 35.07,5.53 C35.0700936,5.49571193 35.0846118,5.46304604 35.11,5.44 C35.1,5.43 35.11,5.42 35.12,5.41 C35.11,5.4 35.09,5.4 35.08,5.39 L35.07,5.38 C34.87,5.29 34.65,5.19 34.44,5.1 C34.2,5 33.96,4.91 33.72,4.82 C33.58,4.77 33.44,4.72 33.3,4.68 C33.14,4.63 32.98,4.57 32.81,4.53 C32.7,4.5 32.59,4.47 32.49,4.44 C32.27,4.38 32.05,4.33 31.82,4.28 C31.72,4.26 31.62,4.25 31.53,4.23 L31.35,4.2 C31.1615031,4.1635434 30.97125,4.1368412 30.78,4.12 C30.7307756,4.10843709 30.6805343,4.10173825 30.63,4.1 C30.61,4.1 30.58,4.09 30.56,4.09 C30.37,4.07 30.19,4.05 30,4.04 C29.9785188,4.57660392 29.5370335,5.00042979 29,5 L29.06,5 C29.1301487,4.99834083 29.2003264,5.00168263 29.27,5.01 C29.3401487,5.00834083 29.4103264,5.01168263 29.48,5.02 L29.49,5.02 C29.5501734,5.01834354 29.6103804,5.02168837 29.67,5.03 L29.69,5.03 C29.75,5.03 29.82,5.04 29.88,5.04 C31.8612283,5.16295734 33.7860488,5.74862335 35.5,6.75 L35.5,6.74 C35.421949,6.69815467 35.351061,6.64414479 35.29,6.58 Z" id="Shape" fill="#E57E25"/><path d="M30,0.03 L30,4.04 C30,4.59228475 29.5522847,5.04 29,5.04 C28.4477153,5.04 28,4.59228475 28,4.04 L28,0.03 C28.33,0.01 28.67,0 29,0 C29.33,0 29.67,0.01 30,0.03 Z" id="Shape" fill="#E57E25"/><path d="M22.5,6.74 C22.0354326,7.01740845 21.4342041,6.87044148 21.15,6.41 C21.14,6.4 21.14,6.39 21.13,6.38 L20.65,5.54 L19.15,2.94 C19.7071077,2.56832899 20.2883994,2.2342533 20.89,1.94 L22.39,4.54 L22.87,5.38 C22.877654,5.38800012 22.8813232,5.39900749 22.88,5.41 C23.1348409,5.88304003 22.9662823,6.47299517 22.5,6.74 Z" id="Shape" fill="#E57E25"/><path d="M17.74,11.5 C17.5638081,11.8088972 17.2356136,11.999708 16.88,12 C16.7156824,12.0005824 16.5539265,11.959283 16.41,11.88 C16.3990075,11.8813232 16.3880001,11.877654 16.38,11.87 L15.54,11.39 L12.94,9.89 C13.2342533,9.28839938 13.568329,8.70710768 13.94,8.15 L16.54,9.65 L17.38,10.13 C17.39,10.14 17.4,10.14 17.41,10.15 C17.8626528,10.4398194 18.0079076,11.0340436 17.74,11.5 Z" id="Shape" fill="#E57E25"/><path d="M16,18 C16.0004298,18.5370335 15.5766039,18.9785188 15.04,19 L11.03,19 C11.01,18.67 11,18.33 11,18 C11,17.67 11.01,17.33 11.03,17 L15.04,17 C15.5766039,17.0214812 16.0004298,17.4629665 16,18 Z" id="Shape" fill="#E57E25"/><path d="M17.41,25.85 C17.4,25.86 17.39,25.86 17.38,25.87 L16.54,26.35 L13.94,27.85 C13.568329,27.2928923 13.2342533,26.7116006 12.94,26.11 L15.54,24.61 L16.38,24.13 C16.3880001,24.122346 16.3990075,24.1186768 16.41,24.12 C16.88304,23.8651591 17.4729952,24.0337177 17.74,24.5 C18.0079076,24.9659564 17.8626528,25.5601806 17.41,25.85 Z" id="Shape" fill="#E57E25"/><path d="M22.88,30.59 C22.8813232,30.6009925 22.877654,30.6119999 22.87,30.62 L22.39,31.46 L20.89,34.06 C20.2883994,33.7657467 19.7071077,33.431671 19.15,33.06 L20.65,30.46 L21.13,29.62 C21.14,29.61 21.14,29.6 21.15,29.59 C21.4398194,29.1373472 22.0340436,28.9920924 22.5,29.26 C22.9662823,29.5270048 23.1348409,30.11696 22.88,30.59 Z" id="Shape" fill="#E57E25"/><path d="M30,31.96 L30,35.97 C29.67,35.99 29.33,36 29,36 C28.67,36 28.33,35.99 28,35.97 L28,31.96 C28,31.4077153 28.4477153,30.96 29,30.96 C29.5522847,30.96 30,31.4077153 30,31.96 Z" id="Shape" fill="#E57E25"/><path d="M38.85,33.06 C38.2928923,33.431671 37.7116006,33.7657467 37.11,34.06 L35.61,31.46 L35.13,30.62 C35.122346,30.6119999 35.1186768,30.6009925 35.12,30.59 C34.8651591,30.11696 35.0337177,29.5270048 35.5,29.26 C35.9659564,28.9920924 36.5601806,29.1373472 36.85,29.59 C36.86,29.6 36.86,29.61 36.87,29.62 L37.35,30.46 L38.85,33.06 Z" id="Shape" fill="#E57E25"/><path d="M45.06,26.11 C44.7657467,26.7116006 44.431671,27.2928923 44.06,27.85 L41.46,26.35 L40.62,25.87 C40.61,25.86 40.6,25.86 40.59,25.85 C40.1373472,25.5601806 39.9920924,24.9659564 40.26,24.5 C40.5270048,24.0337177 41.11696,23.8651591 41.59,24.12 C41.6009925,24.1186768 41.6119999,24.122346 41.62,24.13 L42.46,24.61 L45.06,26.11 Z" id="Shape" fill="#E57E25"/><path d="M47,18 C47,18.33 46.99,18.67 46.97,19 L42.96,19 C42.4077153,19 41.96,18.5522847 41.96,18 C41.96,17.4477153 42.4077153,17 42.96,17 L46.97,17 C46.99,17.33 47,17.67 47,18 Z" id="Shape" fill="#E57E25"/><path d="M45.06,9.89 L42.46,11.39 L41.62,11.87 C41.6119999,11.877654 41.6009925,11.8813232 41.59,11.88 C41.4460735,11.959283 41.2843176,12.0005824 41.12,12 C40.7643864,11.999708 40.4361919,11.8088972 40.26,11.5 C39.9920924,11.0340436 40.1373472,10.4398194 40.59,10.15 C40.6,10.14 40.61,10.14 40.62,10.13 L41.46,9.65 L44.06,8.15 C44.431671,8.70710768 44.7657467,9.28839938 45.06,9.89 Z" id="Shape" fill="#E57E25"/><path d="M38.85,2.94 L37.35,5.54 L36.87,6.38 C36.86,6.39 36.86,6.4 36.85,6.41 C36.5657959,6.87044148 35.9645674,7.01740845 35.5,6.74 C35.421949,6.69815467 35.351061,6.64414479 35.29,6.58 C35.231268,6.51783757 35.1777539,6.45094493 35.13,6.38 C35.0075291,6.1610413 34.9718355,5.90404695 35.03,5.66 C35.0318587,5.62913019 35.0386094,5.59875161 35.05,5.57 C35.0525041,5.55496257 35.0594725,5.54102572 35.07,5.53 C35.0700936,5.49571193 35.0846118,5.46304604 35.11,5.44 C35.1,5.43 35.11,5.42 35.12,5.41 C35.1186768,5.39900749 35.122346,5.38800012 35.13,5.38 L35.61,4.54 L37.11,1.94 C37.7116006,2.2342533 38.2928923,2.56832899 38.85,2.94 Z" id="Shape" fill="#E57E25"/><path d="M30.5,26 L24,26 C23.4477153,26 23,25.5522847 23,25 C23,24.4477153 23.4477153,24 24,24 L30.5,24 C31.8807119,24 33,22.8807119 33,21.5 C33,20.1192881 31.8807119,19 30.5,19 L27.5,19 C25.0147186,19 23,16.9852814 23,14.5 C23,12.0147186 25.0147186,10 27.5,10 L34,10 C34.5522847,10 35,10.4477153 35,11 C35,11.5522847 34.5522847,12 34,12 L27.5,12 C26.1192881,12 25,13.1192881 25,14.5 C25,15.8807119 26.1192881,17 27.5,17 L30.5,17 C32.9852814,17 35,19.0147186 35,21.5 C35,23.9852814 32.9852814,26 30.5,26 Z" id="Shape" fill="#E57E25"/><path d="M29,29 C28.4477153,29 28,28.5522847 28,28 L28,8 C28,7.44771525 28.4477153,7 29,7 C29.5522847,7 30,7.44771525 30,8 L30,28 C30,28.5522847 29.5522847,29 29,29 Z" id="Shape" fill="#E57E25"/><path d="M14.92,41.99 C14.5256639,42.3767403 13.8943361,42.3767403 13.5,41.99 L8.93,37.42 C8.26487524,36.7545304 7.68081611,36.0127081 7.19,35.21 C7.1,35.06 7.02,34.92 6.94,34.77 L7.32,34.42 C7.67833639,34.059544 8.11205442,33.7829206 8.59,33.61 C9.05144569,34.4946972 9.64491409,35.3039723 10.35,36.01 L14.92,40.57 C15.3099779,40.9630079 15.3099779,41.5969921 14.92,41.99 Z" id="Shape" fill="#F09372"/><path d="M43.158,41.99 C43.5523361,42.3767403 44.1836639,42.3767403 44.578,41.99 L49.148,37.42 C49.8131248,36.7545304 50.3971839,36.0127081 50.888,35.21 C50.978,35.06 51.058,34.92 51.138,34.77 L50.758,34.42 C50.3996636,34.059544 49.9659456,33.7829206 49.488,33.61 C49.0265543,34.4946972 48.4330859,35.3039723 47.728,36.01 L43.158,40.57 C42.7680221,40.9630079 42.7680221,41.5969921 43.158,41.99 Z" id="Shape" fill="#F09372"/></g></g></svg>
